#N canvas 0 96 1280 624 12;
#X obj 207 68 delay 12;
#X obj 6 49 bng 15 250 50 0 start empty empty 17 7 0 10 -262144 -1
-1;
#X obj 207 121 metro 500;
#X obj 207 94 f 1;
#X obj 207 157 bng 50 250 50 0 empty empty empty 17 7 0 10 -258113
-1 -1;
#X obj 80 166 netsend 1;
#X floatatom 82 205 5 0 0 0 - - -;
#X msg 8 71 send start;
#X msg 104 71 send stop;
#X obj 244 95 f 0;
#X obj 105 45 bng 15 250 50 0 stop empty empty 17 7 0 10 -262144 -1
-1;
#X floatatom 259 41 5 0 0 0 - - -;
#X text 217 8 set IP here;
#X text 306 39 set delay here;
#X obj 296 196 vline~;
#X msg 296 164 1 20 \, 0 20 20;
#X obj 312 232 osc~ 800;
#X obj 294 266 *~;
#X obj 291 484 dac~;
#X msg 5 12 connect 78.23.193.110 61012;
#X obj 451 152 vsl 15 128 0.01 0.5 1 0 empty empty empty 0 -9 0 10
-262144 -1 -1 6200 1;
#X obj 285 420 *~;
#X connect 0 0 3 0;
#X connect 1 0 0 0;
#X connect 1 0 7 0;
#X connect 2 0 4 0;
#X connect 2 0 15 0;
#X connect 3 0 2 0;
#X connect 5 0 6 0;
#X connect 7 0 5 0;
#X connect 8 0 5 0;
#X connect 9 0 2 0;
#X connect 10 0 9 0;
#X connect 10 0 8 0;
#X connect 11 0 0 1;
#X connect 14 0 17 0;
#X connect 15 0 14 0;
#X connect 16 0 17 1;
#X connect 17 0 21 0;
#X connect 19 0 5 0;
#X connect 20 0 21 1;
#X connect 21 0 18 0;
#X connect 21 0 18 1;
