#N canvas 225 212 1249 651 12;
#X obj 8 91 inlet~;
#X obj 108 115 inlet~;
#X obj 202 92 inlet~;
#X obj 299 115 inlet~;
#X obj 405 90 inlet~;
#X obj 42 271 outlet~ left;
#X obj 152 271 outlet~ right;
#X obj 122 178 panner;
#X obj 218 178 panner;
#X obj 314 178 panner;
#X obj 406 178 panner;
#X obj 56 91 inlet;
#X obj 97 91 inlet;
#X obj 156 115 inlet;
#X obj 197 115 inlet;
#X obj 249 92 inlet;
#X obj 290 92 inlet;
#X obj 347 115 inlet;
#X obj 388 115 inlet;
#X obj 454 90 inlet;
#X obj 495 90 inlet;
#X obj 186 376 outlet~ M1;
#X obj 267 376 outlet~ M2;
#X obj 350 378 outlet~ M3;
#X obj 435 379 outlet~ M4;
#X obj 525 380 outlet~ M5;
#X obj 24 175 panner;
#X connect 0 0 26 0;
#X connect 1 0 7 0;
#X connect 2 0 8 0;
#X connect 3 0 9 0;
#X connect 4 0 10 0;
#X connect 7 0 5 0;
#X connect 7 1 6 0;
#X connect 7 2 22 0;
#X connect 8 0 5 0;
#X connect 8 1 6 0;
#X connect 8 2 23 0;
#X connect 9 0 5 0;
#X connect 9 1 6 0;
#X connect 9 2 24 0;
#X connect 10 0 5 0;
#X connect 10 1 6 0;
#X connect 10 2 25 0;
#X connect 11 0 26 1;
#X connect 12 0 26 2;
#X connect 13 0 7 1;
#X connect 14 0 7 2;
#X connect 15 0 8 1;
#X connect 16 0 8 2;
#X connect 17 0 9 1;
#X connect 18 0 9 2;
#X connect 19 0 10 1;
#X connect 20 0 10 2;
#X connect 26 0 5 0;
#X connect 26 1 6 0;
#X connect 26 2 21 0;
#X coords 0 -1 1 1 500 100 1 10 150;
