#N canvas 158 208 867 300 12;
#X obj 8 91 inlet~;
#X obj 108 115 inlet~;
#X obj 202 92 inlet~;
#X obj 299 115 inlet~;
#X obj 405 90 inlet~;
#X obj 26 178 panner;
#X obj 42 271 outlet~ left;
#X obj 152 271 outlet~ right;
#X obj 122 178 panner;
#X obj 218 178 panner;
#X obj 314 178 panner;
#X obj 406 178 panner;
#X obj 56 91 inlet;
#X obj 97 91 inlet;
#X obj 156 115 inlet;
#X obj 197 115 inlet;
#X obj 249 92 inlet;
#X obj 290 92 inlet;
#X obj 347 115 inlet;
#X obj 388 115 inlet;
#X obj 454 90 inlet;
#X obj 495 90 inlet;
#X connect 0 0 5 0;
#X connect 1 0 8 0;
#X connect 2 0 9 0;
#X connect 3 0 10 0;
#X connect 4 0 11 0;
#X connect 5 0 6 0;
#X connect 5 1 7 0;
#X connect 8 0 6 0;
#X connect 8 1 7 0;
#X connect 9 0 6 0;
#X connect 9 1 7 0;
#X connect 10 0 6 0;
#X connect 10 1 7 0;
#X connect 11 0 6 0;
#X connect 11 1 7 0;
#X connect 12 0 5 1;
#X connect 13 0 5 2;
#X connect 14 0 8 1;
#X connect 15 0 8 2;
#X connect 16 0 9 1;
#X connect 17 0 9 2;
#X connect 18 0 10 1;
#X connect 19 0 10 2;
#X connect 20 0 11 1;
#X connect 21 0 11 2;
#X coords 0 -1 1 1 500 100 1 10 150;
