#N canvas 357 155 484 460 12;
#X obj 11 -41 inlet~;
#X obj 98 -41 inlet;
#X obj 98 82 / 4;
#X obj 96 149 + 0.75;
#X floatatom 96 121 5 0 0 0 - - -;
#X msg 97 182 \$1 10;
#X obj 97 217 line~;
#X obj 95 246 cos~;
#X obj 77 278 *~;
#X msg 32 181 \$1 10;
#X obj 32 216 line~;
#X obj 30 245 cos~;
#X obj 12 277 *~;
#X obj 12 341 outlet~ left;
#X obj 111 340 outlet~ right;
#X obj 11 53 *~;
#X obj 103 14 vsl 15 50 0.01 1 1 1 empty empty empty 0 -9 0 10 -262144
-1 -1 4162 1;
#X obj 127 41 hsl 50 25 0 1 0 0 empty empty empty -2 -8 0 10 -262144
-1 -1 4900 1;
#X obj 164 -40 inlet;
#X floatatom 161 260 5 0 0 0 - - -;
#X connect 0 0 15 0;
#X connect 1 0 17 0;
#X connect 2 0 4 0;
#X connect 3 0 5 0;
#X connect 4 0 3 0;
#X connect 4 0 9 0;
#X connect 5 0 6 0;
#X connect 5 0 19 0;
#X connect 6 0 7 0;
#X connect 7 0 8 1;
#X connect 8 0 14 0;
#X connect 9 0 10 0;
#X connect 10 0 11 0;
#X connect 11 0 12 1;
#X connect 12 0 13 0;
#X connect 15 0 12 0;
#X connect 15 0 8 0;
#X connect 16 0 15 1;
#X connect 17 0 2 0;
#X connect 18 0 16 0;
#X coords 0 -1 1 1 85 60 1 100 10;
