#N canvas 47 115 1178 616 12;
#X declare -stdpath blokas;
#X obj 184 247 bng 15 250 50 0 start_btn start_btn empty 17 7 0 10
-4034 -1 -1;
#X obj 322 400 metro 500;
#X obj 322 373 f 1;
#X obj 329 459 bng 50 250 50 0 empty empty empty 17 7 0 10 -4032 -1
-1;
#X obj 53 171 netsend 1;
#X msg 16 52 connect 192.168.1.167 61012;
#X floatatom 53 194 5 0 0 0 - - -;
#X msg 186 269 send start;
#X msg 282 269 send stop;
#X obj 359 374 f 0;
#X obj 284 249 bng 15 250 50 0 stop_btn stop_btn empty 17 7 0 10 -258113
-1 -1;
#X floatatom 361 426 5 0 100 0 - latency -;
#X obj 399 405 vline~;
#X msg 399 373 1 20 \, 0 20 20;
#X obj 415 441 osc~ 800;
#X obj 398 470 *~;
#X msg 51 146 disconnect;
#X obj 505 374 vsl 15 128 0.005 0.2 1 0 metroVOL metroVOL empty 0 -9
0 10 -262144 -1 -1 10314 1;
#X obj 398 498 *~;
#X text 528 481 metronome_volume;
#X obj 19 -23 declare -stdpath blokas;
#X obj 17 0 monorack remote-metronome_main;
#X obj 33 354 ktrl metroVOL;
#X obj 33 418 ktrl tempo;
#X obj 32 484 ktrl latency;
#X obj 318 426 delay;
#X text 192 503 set local delay;
#X msg 235 301 send tick;
#X text 312 301 undelayed tick;
#X msg 48 116 connect \$1 61012;
#X obj 48 91 r cb1;
#X obj 186 174 netsend 1;
#X floatatom 186 197 5 0 0 0 - - -;
#X obj 324 175 netsend 1;
#X floatatom 324 198 5 0 0 0 - - -;
#X obj 456 172 netsend 1;
#X floatatom 456 195 5 0 0 0 - - -;
#X msg 186 146 disconnect;
#X msg 183 116 connect \$1 61012;
#X msg 323 146 disconnect;
#X msg 320 116 connect \$1 61012;
#X msg 458 146 disconnect;
#X msg 455 116 connect \$1 61012;
#X obj 183 91 r cb2;
#X obj 320 91 r cb3;
#X obj 455 91 r cb4;
#X obj 762 545 dac~ 1 2 3 4 5 6 7 8;
#X obj 761 468 adc~ 1 2 3 4 5 6 7 8;
#X obj 769 333 vsl 15 128 0.005 1 1 0 vol1 vol1 empty 0 -9 0 10 -262144
-1 -1 0 1;
#X obj 763 499 *~;
#X obj 792 332 vsl 15 128 0.005 1 1 0 vol2 vol2 empty 0 -9 0 10 -262144
-1 -1 0 1;
#X obj 792 499 *~;
#X obj 823 333 vsl 15 128 0.005 1 1 0 vol3 vol3 empty 0 -9 0 10 -262144
-1 -1 0 1;
#X obj 817 499 *~;
#X obj 849 333 vsl 15 128 0.005 1 1 0 vol4 vol4 empty 0 -9 0 10 -262144
-1 -1 0 1;
#X obj 843 499 *~;
#X obj 875 333 vsl 15 128 0.005 1 1 0 vol5 vol5 empty 0 -9 0 10 -262144
-1 -1 0 1;
#X obj 869 499 *~;
#X obj 917 333 vsl 15 128 0.005 1 1 0 volMIX volMIX empty 0 -9 0 10
-262144 -1 -1 12700 1;
#X obj 911 499 *~;
#X text 964 355 channel 1-5 choirbox 1-5;
#X text 963 372 channel 6 MIX for sending out;
#X text 964 389 channel 7 local metronome;
#X obj 663 -27 ktrl vol1;
#X obj 663 33 ktrl vol2;
#X obj 663 94 ktrl vol3;
#X obj 664 154 ktrl vol4;
#X obj 664 214 ktrl vol5;
#X obj 831 161 ktrl vol4;
#X connect 0 0 7 0;
#X connect 0 0 2 0;
#X connect 1 0 25 0;
#X connect 1 0 27 0;
#X connect 2 0 1 0;
#X connect 4 0 6 0;
#X connect 5 0 4 0;
#X connect 7 0 4 0;
#X connect 7 0 31 0;
#X connect 7 0 33 0;
#X connect 7 0 35 0;
#X connect 8 0 4 0;
#X connect 8 0 31 0;
#X connect 8 0 33 0;
#X connect 8 0 35 0;
#X connect 9 0 1 0;
#X connect 10 0 9 0;
#X connect 10 0 8 0;
#X connect 11 0 25 1;
#X connect 12 0 15 0;
#X connect 13 0 12 0;
#X connect 14 0 15 1;
#X connect 15 0 18 0;
#X connect 16 0 4 0;
#X connect 17 0 18 1;
#X connect 18 0 46 6;
#X connect 25 0 13 0;
#X connect 25 0 3 0;
#X connect 27 0 4 0;
#X connect 27 0 31 0;
#X connect 27 0 33 0;
#X connect 27 0 35 0;
#X connect 29 0 4 0;
#X connect 30 0 29 0;
#X connect 31 0 32 0;
#X connect 33 0 34 0;
#X connect 35 0 36 0;
#X connect 37 0 31 0;
#X connect 38 0 31 0;
#X connect 39 0 33 0;
#X connect 40 0 33 0;
#X connect 41 0 35 0;
#X connect 42 0 35 0;
#X connect 43 0 38 0;
#X connect 44 0 40 0;
#X connect 45 0 42 0;
#X connect 47 0 49 0;
#X connect 47 1 51 0;
#X connect 47 2 53 0;
#X connect 47 3 55 0;
#X connect 47 4 57 0;
#X connect 48 0 49 1;
#X connect 49 0 46 0;
#X connect 49 0 59 0;
#X connect 50 0 51 1;
#X connect 51 0 46 1;
#X connect 51 0 59 0;
#X connect 52 0 53 1;
#X connect 53 0 46 2;
#X connect 53 0 59 0;
#X connect 54 0 55 1;
#X connect 55 0 46 3;
#X connect 55 0 59 0;
#X connect 56 0 57 1;
#X connect 57 0 46 4;
#X connect 57 0 59 0;
#X connect 58 0 59 1;
#X connect 59 0 46 5;
