#N canvas 39 100 1178 616 12;
#X declare -stdpath blokas;
#X obj 184 247 bng 15 250 50 0 start_btn start_btn empty 17 7 0 10
-4034 -1 -1;
#X obj 322 400 metro 500;
#X obj 322 373 f 1;
#X obj 329 459 bng 50 250 50 0 empty empty empty 17 7 0 10 -4032 -1
-1;
#X obj 53 171 netsend 1;
#X msg 16 52 connect 192.168.1.167 61012;
#X floatatom 53 194 5 0 0 0 - - -;
#X msg 186 269 send start;
#X msg 282 269 send stop;
#X obj 359 374 f 0;
#X obj 284 249 bng 15 250 50 0 stop_btn stop_btn empty 17 7 0 10 -258113
-1 -1;
#X floatatom 361 426 5 0 100 0 - latency -;
#X obj 399 405 vline~;
#X msg 399 373 1 20 \, 0 20 20;
#X obj 415 441 osc~ 800;
#X obj 398 470 *~;
#X obj 397 530 dac~;
#X msg 51 146 disconnect;
#X obj 505 374 vsl 15 128 0.005 0.2 1 0 metroVOL metroVOL empty 0 -9
0 10 -262144 -1 -1 0 1;
#X obj 398 498 *~;
#X text 528 481 metronome_volume;
#X obj 19 -23 declare -stdpath blokas;
#X obj 17 0 monorack remote-metronome_main;
#X obj 33 354 ktrl metroVOL;
#X obj 33 418 ktrl tempo;
#X obj 32 484 ktrl latency;
#X obj 318 426 delay;
#X text 192 503 set local delay;
#X msg 235 301 send tick;
#X text 312 301 undelayed tick;
#X msg 48 116 connect \$1 61012;
#X obj 48 91 r cb1;
#X obj 186 174 netsend 1;
#X floatatom 186 197 5 0 0 0 - - -;
#X obj 324 175 netsend 1;
#X floatatom 324 198 5 0 0 0 - - -;
#X obj 456 172 netsend 1;
#X floatatom 456 195 5 0 0 0 - - -;
#X msg 186 146 disconnect;
#X msg 183 116 connect \$1 61012;
#X msg 323 146 disconnect;
#X msg 320 116 connect \$1 61012;
#X msg 458 146 disconnect;
#X msg 455 116 connect \$1 61012;
#X obj 183 91 r cb2;
#X obj 320 91 r cb3;
#X obj 455 91 r cb4;
#X connect 0 0 7 0;
#X connect 0 0 2 0;
#X connect 1 0 26 0;
#X connect 1 0 28 0;
#X connect 2 0 1 0;
#X connect 4 0 6 0;
#X connect 5 0 4 0;
#X connect 7 0 4 0;
#X connect 7 0 32 0;
#X connect 7 0 34 0;
#X connect 7 0 36 0;
#X connect 8 0 4 0;
#X connect 8 0 32 0;
#X connect 8 0 34 0;
#X connect 8 0 36 0;
#X connect 9 0 1 0;
#X connect 10 0 9 0;
#X connect 10 0 8 0;
#X connect 11 0 26 1;
#X connect 12 0 15 0;
#X connect 13 0 12 0;
#X connect 14 0 15 1;
#X connect 15 0 19 0;
#X connect 17 0 4 0;
#X connect 18 0 19 1;
#X connect 19 0 16 0;
#X connect 19 0 16 1;
#X connect 26 0 13 0;
#X connect 26 0 3 0;
#X connect 28 0 4 0;
#X connect 28 0 32 0;
#X connect 28 0 34 0;
#X connect 28 0 36 0;
#X connect 30 0 4 0;
#X connect 31 0 30 0;
#X connect 32 0 33 0;
#X connect 34 0 35 0;
#X connect 36 0 37 0;
#X connect 38 0 32 0;
#X connect 39 0 32 0;
#X connect 40 0 34 0;
#X connect 41 0 34 0;
#X connect 42 0 36 0;
#X connect 43 0 36 0;
#X connect 44 0 39 0;
#X connect 45 0 41 0;
#X connect 46 0 43 0;
