#N canvas -234 168 1280 624 12;
#X declare -stdpath blokas;
#X obj 184 247 bng 15 250 50 0 start_btn start_btn empty 17 7 0 10
-4034 -1 -1;
#X obj 322 400 metro 500;
#X obj 322 373 f 1;
#X obj 329 459 bng 50 250 50 0 empty empty empty 17 7 0 10 -4032 -1
-1;
#X obj 53 171 netsend 1;
#X msg 16 52 connect 192.168.1.167 61012;
#X floatatom 53 194 5 0 0 0 - - -;
#X msg 186 269 send start;
#X msg 282 269 send stop;
#X obj 359 374 f 0;
#X obj 284 249 bng 15 250 50 0 stop_btn stop_btn empty 17 7 0 10 -258113
-1 -1;
#X floatatom 361 426 5 0 100 0 - latency -;
#X obj 399 405 vline~;
#X msg 399 373 1 20 \, 0 20 20;
#X obj 415 441 osc~ 800;
#X obj 398 470 *~;
#X msg 51 146 disconnect;
#X obj 505 374 vsl 15 128 0.005 0.2 1 0 metroVOL metroVOL empty 0 -9
0 10 -262144 -1 -1 10314 1;
#X obj 398 498 *~;
#X text 528 481 metronome_volume;
#X obj 19 -23 declare -stdpath blokas;
#X obj 17 0 monorack remote-metronome_main;
#X obj 33 354 ktrl metroVOL;
#X obj 33 418 ktrl tempo;
#X obj 32 484 ktrl latency;
#X obj 318 426 delay;
#X text 192 503 set local delay;
#X msg 235 301 send tick;
#X text 312 301 undelayed tick;
#X msg 48 116 connect \$1 61012;
#X obj 48 91 r cb1;
#X obj 186 174 netsend 1;
#X floatatom 186 197 5 0 0 0 - - -;
#X obj 324 175 netsend 1;
#X floatatom 324 198 5 0 0 0 - - -;
#X obj 456 172 netsend 1;
#X floatatom 456 195 5 0 0 0 - - -;
#X msg 186 146 disconnect;
#X msg 183 116 connect \$1 61012;
#X msg 323 146 disconnect;
#X msg 320 116 connect \$1 61012;
#X msg 458 146 disconnect;
#X msg 455 116 connect \$1 61012;
#X obj 183 91 r cb2;
#X obj 320 91 r cb3;
#X obj 455 91 r cb4;
#X obj 762 545 dac~ 1 2 3 4 5 6 7 8;
#X obj 761 468 adc~ 1 2 3 4 5 6 7 8;
#X obj 769 333 vsl 15 128 0.005 1 1 0 vol1 vol1 empty 0 -9 0 10 -262144
-1 -1 0 1;
#X obj 763 499 *~;
#X obj 792 332 vsl 15 128 0.005 1 1 0 vol2 vol2 empty 0 -9 0 10 -262144
-1 -1 0 1;
#X obj 792 499 *~;
#X obj 823 333 vsl 15 128 0.005 1 1 0 vol3 vol3 empty 0 -9 0 10 -262144
-1 -1 0 1;
#X obj 817 499 *~;
#X obj 849 333 vsl 15 128 0.005 1 1 0 vol4 vol4 empty 0 -9 0 10 -262144
-1 -1 0 1;
#X obj 843 499 *~;
#X obj 875 333 vsl 15 128 0.005 1 1 0 vol5 vol5 empty 0 -9 0 10 -262144
-1 -1 0 1;
#X obj 869 499 *~;
#X obj 917 333 vsl 15 128 0.005 1 1 0 volMIX volMIX empty 0 -9 0 10
-262144 -1 -1 0 1;
#X obj 911 499 *~;
#X text 964 355 channel 1-5 choirbox 1-5;
#X text 963 372 channel 6 MIX for sending out;
#X text 964 389 channel 7 local metronome;
#X obj 663 33 ktrl vol2;
#X obj 663 94 ktrl vol3;
#X obj 664 154 ktrl vol4;
#X obj 664 214 ktrl vol5;
#X obj 663 -27 ktrl vol1;
#X obj 1073 171 downmix cb1;
#X obj 1114 114 r vol1cb1;
#X obj 1088 92 r pan1cb1;
#X obj 1194 92 r pan2cb1;
#X obj 1220 114 r vol2cb1;
#X obj 1315 89 r pan3cb1;
#X obj 1341 111 r vol3cb1;
#X obj 1420 86 r pan4cb1;
#X obj 1446 108 r vol4cb1;
#X obj 1072 64 adc~ 1;
#X obj 1177 64 adc~ 2;
#X obj 1283 64 adc~ 3;
#X obj 1389 62 adc~ 4;
#X obj 1494 61 adc~ 5;
#X obj 1073 297 dac~ 1 2;
#X obj 1072 -4 ktrl pan1cb1;
#X msg 1653 85 0.5;
#X obj 1655 59 loadbang;
#X obj 1653 116 s pan1cb1;
#X obj 1226 -4 ktrl pan2cb1;
#X obj 1379 -3 ktrl pan3cb1;
#X obj 1533 -2 ktrl pan4cb1;
#X obj 1687 -2 ktrl pan5cb1;
#X obj 1652 140 s pan2cb1;
#X obj 1653 165 s pan3cb1;
#X obj 1652 189 s pan4cb1;
#X obj 1651 213 s pan5cb1;
#X obj 1726 117 s vol1cb1;
#X obj 1725 142 s vol2cb1;
#X obj 1726 166 s vol3cb1;
#X obj 1725 190 s vol4cb1;
#X obj 1724 214 s vol5cb1;
#X obj 1071 -63 ktrl vol1cb1;
#X obj 1225 -63 ktrl vol2cb1;
#X obj 1378 -62 ktrl vol3cb1;
#X obj 1532 -61 ktrl vol4cb1;
#X obj 1686 -61 ktrl vol5cb1;
#X obj 1914 66 adc~ 1;
#X obj 2019 66 adc~ 2;
#X obj 2125 66 adc~ 3;
#X obj 2231 64 adc~ 4;
#X obj 2336 63 adc~ 5;
#X msg 2495 87 0.5;
#X obj 2497 61 loadbang;
#X obj 1913 -61 ktrl vol1cb2;
#X obj 2067 -61 ktrl vol2cb2;
#X obj 2220 -60 ktrl vol3cb2;
#X obj 1914 -2 ktrl pan1cb2;
#X obj 2068 -2 ktrl pan2cb2;
#X obj 2221 -1 ktrl pan3cb2;
#X obj 2374 -59 ktrl vol4cb2;
#X obj 2528 -59 ktrl vol5cb2;
#X obj 2375 0 ktrl pan4cb2;
#X obj 2529 0 ktrl pan5cb2;
#X obj 2495 118 s pan1cb2;
#X obj 2494 141 s pan2cb2;
#X obj 2495 167 s pan3cb2;
#X obj 2494 191 s pan4cb2;
#X obj 2493 215 s pan5cb2;
#X obj 2568 119 s vol1cb2;
#X obj 2567 144 s vol2cb2;
#X obj 2568 168 s vol3cb2;
#X obj 2567 192 s vol4cb2;
#X obj 2566 216 s vol5cb2;
#X obj 1915 299 dac~ 3 4;
#X obj 1930 94 r pan1cb2;
#X obj 1956 116 r vol1cb2;
#X obj 2036 94 r pan2cb2;
#X obj 2062 116 r vol2cb2;
#X obj 2157 91 r pan3cb2;
#X obj 2183 113 r vol3cb2;
#X obj 2262 88 r pan4cb2;
#X obj 2288 110 r vol4cb2;
#X obj 2385 87 r pan2cb2;
#X obj 2411 109 r vol2cb2;
#X obj 2710 67 adc~ 1;
#X obj 2815 67 adc~ 2;
#X obj 3027 65 adc~ 4;
#X obj 3132 64 adc~ 5;
#X msg 3291 88 0.5;
#X obj 3293 62 loadbang;
#X obj 3291 119 s pan1cb1;
#X obj 3290 143 s pan2cb1;
#X obj 3291 168 s pan3cb1;
#X obj 3290 192 s pan4cb1;
#X obj 3289 216 s pan5cb1;
#X obj 3364 120 s vol1cb1;
#X obj 3363 145 s vol2cb1;
#X obj 3364 169 s vol3cb1;
#X obj 3363 193 s vol4cb1;
#X obj 3362 217 s vol5cb1;
#X obj 2711 -61 ktrl vol1cb3;
#X obj 2710 -1 ktrl pan1cb3;
#X obj 2863 -60 ktrl vol2cb3;
#X obj 2864 -1 ktrl pan2cb3;
#X obj 3016 -60 ktrl vol3cb3;
#X obj 3017 0 ktrl pan3cb3;
#X obj 3170 -58 ktrl vol4cb3;
#X obj 3171 1 ktrl pan4cb3;
#X obj 3324 -58 ktrl vol5cb3;
#X obj 3325 1 ktrl pan5cb3;
#X obj 2726 95 r pan1cb3;
#X obj 2752 117 r vol1cb3;
#X obj 2832 95 r pan2cb3;
#X obj 2858 117 r vol2cb3;
#X obj 2921 67 adc~ 3;
#X obj 2953 92 r pan3cb3;
#X obj 2979 114 r vol3cb3;
#X obj 3058 89 r pan4cb3;
#X obj 3084 110 r vol4cb3;
#X obj 3182 88 r pan2cb3;
#X obj 3207 110 r vol2cb3;
#X obj 2711 174 downmix cb3;
#X obj 2711 300 dac~ 5 6;
#X obj 1915 173 downmix cb2;
#X obj 3535 68 adc~ 1;
#X obj 3640 68 adc~ 2;
#X obj 3852 66 adc~ 4;
#X obj 3957 65 adc~ 5;
#X msg 4116 89 0.5;
#X obj 4118 63 loadbang;
#X obj 3746 68 adc~ 3;
#X obj 3536 -60 ktrl vol1cb4;
#X obj 3535 0 ktrl pan1cb4;
#X obj 3688 -59 ktrl vol2cb4;
#X obj 3689 0 ktrl pan2cb4;
#X obj 3841 -58 ktrl vol3cb4;
#X obj 3842 1 ktrl pan3cb4;
#X obj 3995 -57 ktrl vol4cb4;
#X obj 3996 2 ktrl pan4cb4;
#X obj 3551 96 r pan1cb4;
#X obj 3577 118 r vol1cb4;
#X obj 3657 96 r pan2cb4;
#X obj 3683 118 r vol2cb4;
#X obj 3778 93 r pan3cb4;
#X obj 3803 115 r vol3cb4;
#X obj 3883 90 r pan4cb4;
#X obj 3909 111 r vol4cb4;
#X obj 4007 89 r pan2cb4;
#X obj 4032 111 r vol2cb4;
#X obj 4116 120 s pan1cb4;
#X obj 4115 144 s pan2cb4;
#X obj 4116 169 s pan3cb4;
#X obj 4115 193 s pan4cb4;
#X obj 4114 217 s pan5cb4;
#X obj 3536 301 dac~ 7 8;
#X obj 4149 -57 ktrl vol5cb4;
#X obj 4150 2 ktrl pan5cb4;
#X obj 4189 121 s vol1cb4;
#X obj 4188 146 s vol2cb4;
#X obj 4189 170 s vol3cb4;
#X obj 4188 194 s vol4cb4;
#X obj 4187 218 s vol5cb4;
#X obj 4332 70 adc~ 1;
#X obj 4437 70 adc~ 2;
#X obj 4649 68 adc~ 4;
#X obj 4754 67 adc~ 5;
#X msg 4913 91 0.5;
#X obj 4915 65 loadbang;
#X obj 4543 70 adc~ 3;
#X obj 4333 -58 ktrl vol1cb5;
#X obj 4485 -57 ktrl vol2cb5;
#X obj 4332 2 ktrl pan1cb5;
#X obj 4486 2 ktrl pan2cb5;
#X obj 4638 -56 ktrl vol3cb5;
#X obj 4639 3 ktrl pan3cb5;
#X obj 4792 -55 ktrl vol4cb5;
#X obj 4793 4 ktrl pan4cb5;
#X obj 4946 -55 ktrl vol5cb5;
#X obj 4947 4 ktrl pan5cb5;
#X obj 4348 98 r pan1cb5;
#X obj 4374 120 r vol1cb5;
#X obj 4454 98 r pan2cb5;
#X obj 4480 120 r vol2cb5;
#X obj 4575 95 r pan3cb5;
#X obj 4601 117 r vol3cb5;
#X obj 4680 92 r pan4cb5;
#X obj 4706 113 r vol4cb5;
#X obj 4804 91 r pan2cb5;
#X obj 4829 113 r vol2cb5;
#X obj 4913 122 s pan1cb5;
#X obj 4912 146 s pan2cb5;
#X obj 4913 171 s pan3cb5;
#X obj 4912 195 s pan4cb5;
#X obj 4911 219 s pan5cb5;
#X obj 4986 123 s vol1cb5;
#X obj 4985 148 s vol2cb5;
#X obj 4986 172 s vol3cb5;
#X obj 4985 196 s vol4cb5;
#X obj 4984 220 s vol5cb5;
#X obj 4333 303 dac~ 9 10;
#X obj 3536 175 downmix cb4;
#X obj 4333 177 downmix cb4;
#X obj 1543 85 r pan4cb1;
#X obj 1569 107 r vol4cb1;
#X msg 1726 86 0.3;
#X msg 2568 88 0.3;
#X msg 3364 89 0.3;
#X msg 4188 90 0.3;
#X msg 4986 92 0.3;
#X connect 0 0 7 0;
#X connect 0 0 2 0;
#X connect 1 0 25 0;
#X connect 1 0 27 0;
#X connect 2 0 1 0;
#X connect 4 0 6 0;
#X connect 5 0 4 0;
#X connect 7 0 4 0;
#X connect 7 0 31 0;
#X connect 7 0 33 0;
#X connect 7 0 35 0;
#X connect 8 0 4 0;
#X connect 8 0 31 0;
#X connect 8 0 33 0;
#X connect 8 0 35 0;
#X connect 9 0 1 0;
#X connect 10 0 9 0;
#X connect 10 0 8 0;
#X connect 11 0 25 1;
#X connect 12 0 15 0;
#X connect 13 0 12 0;
#X connect 14 0 15 1;
#X connect 15 0 18 0;
#X connect 16 0 4 0;
#X connect 17 0 18 1;
#X connect 18 0 46 6;
#X connect 25 0 13 0;
#X connect 25 0 3 0;
#X connect 27 0 4 0;
#X connect 27 0 31 0;
#X connect 27 0 33 0;
#X connect 27 0 35 0;
#X connect 29 0 4 0;
#X connect 30 0 29 0;
#X connect 31 0 32 0;
#X connect 33 0 34 0;
#X connect 35 0 36 0;
#X connect 37 0 31 0;
#X connect 38 0 31 0;
#X connect 39 0 33 0;
#X connect 40 0 33 0;
#X connect 41 0 35 0;
#X connect 42 0 35 0;
#X connect 43 0 38 0;
#X connect 44 0 40 0;
#X connect 45 0 42 0;
#X connect 47 0 49 0;
#X connect 47 1 51 0;
#X connect 47 2 53 0;
#X connect 47 3 55 0;
#X connect 47 4 57 0;
#X connect 48 0 49 1;
#X connect 49 0 46 0;
#X connect 49 0 59 0;
#X connect 50 0 51 1;
#X connect 51 0 46 1;
#X connect 51 0 59 0;
#X connect 52 0 53 1;
#X connect 53 0 46 2;
#X connect 53 0 59 0;
#X connect 54 0 55 1;
#X connect 55 0 46 3;
#X connect 55 0 59 0;
#X connect 56 0 57 1;
#X connect 57 0 46 4;
#X connect 57 0 59 0;
#X connect 58 0 59 1;
#X connect 59 0 46 5;
#X connect 68 0 82 0;
#X connect 68 1 82 1;
#X connect 69 0 68 2;
#X connect 70 0 68 1;
#X connect 71 0 68 4;
#X connect 72 0 68 5;
#X connect 73 0 68 7;
#X connect 74 0 68 8;
#X connect 75 0 68 10;
#X connect 76 0 68 11;
#X connect 77 0 68 0;
#X connect 78 0 68 3;
#X connect 79 0 68 6;
#X connect 80 0 68 9;
#X connect 81 0 68 12;
#X connect 84 0 86 0;
#X connect 84 0 91 0;
#X connect 84 0 92 0;
#X connect 84 0 93 0;
#X connect 84 0 94 0;
#X connect 85 0 84 0;
#X connect 85 0 263 0;
#X connect 105 0 182 0;
#X connect 106 0 182 3;
#X connect 107 0 182 6;
#X connect 108 0 182 9;
#X connect 109 0 182 12;
#X connect 110 0 122 0;
#X connect 110 0 123 0;
#X connect 110 0 124 0;
#X connect 110 0 125 0;
#X connect 110 0 126 0;
#X connect 111 0 110 0;
#X connect 111 0 264 0;
#X connect 133 0 182 1;
#X connect 134 0 182 2;
#X connect 135 0 182 4;
#X connect 136 0 182 5;
#X connect 137 0 182 7;
#X connect 138 0 182 8;
#X connect 139 0 182 10;
#X connect 140 0 182 11;
#X connect 141 0 182 13;
#X connect 142 0 182 14;
#X connect 143 0 180 0;
#X connect 144 0 180 3;
#X connect 145 0 180 9;
#X connect 146 0 180 12;
#X connect 147 0 149 0;
#X connect 147 0 150 0;
#X connect 147 0 151 0;
#X connect 147 0 152 0;
#X connect 147 0 153 0;
#X connect 148 0 147 0;
#X connect 148 0 265 0;
#X connect 169 0 180 1;
#X connect 170 0 180 2;
#X connect 171 0 180 4;
#X connect 172 0 180 5;
#X connect 173 0 180 6;
#X connect 174 0 180 7;
#X connect 175 0 180 8;
#X connect 176 0 180 10;
#X connect 177 0 180 11;
#X connect 178 0 180 13;
#X connect 179 0 180 14;
#X connect 180 0 181 0;
#X connect 180 1 181 1;
#X connect 182 0 132 0;
#X connect 182 1 132 1;
#X connect 183 0 259 0;
#X connect 184 0 259 3;
#X connect 185 0 259 9;
#X connect 186 0 259 12;
#X connect 187 0 208 0;
#X connect 187 0 209 0;
#X connect 187 0 210 0;
#X connect 187 0 211 0;
#X connect 187 0 212 0;
#X connect 188 0 187 0;
#X connect 188 0 266 0;
#X connect 189 0 259 6;
#X connect 198 0 259 1;
#X connect 199 0 259 2;
#X connect 200 0 259 4;
#X connect 201 0 259 5;
#X connect 202 0 259 7;
#X connect 203 0 259 8;
#X connect 204 0 259 10;
#X connect 205 0 259 11;
#X connect 206 0 259 13;
#X connect 207 0 259 14;
#X connect 221 0 260 0;
#X connect 222 0 260 3;
#X connect 223 0 260 9;
#X connect 224 0 260 12;
#X connect 225 0 248 0;
#X connect 225 0 249 0;
#X connect 225 0 250 0;
#X connect 225 0 251 0;
#X connect 225 0 252 0;
#X connect 226 0 225 0;
#X connect 226 0 267 0;
#X connect 227 0 260 6;
#X connect 238 0 260 1;
#X connect 239 0 260 2;
#X connect 240 0 260 4;
#X connect 241 0 260 5;
#X connect 242 0 260 7;
#X connect 243 0 260 8;
#X connect 244 0 260 10;
#X connect 245 0 260 11;
#X connect 246 0 260 13;
#X connect 247 0 260 14;
#X connect 259 0 213 0;
#X connect 259 1 213 1;
#X connect 260 0 258 0;
#X connect 260 1 258 1;
#X connect 261 0 68 13;
#X connect 262 0 68 14;
#X connect 263 0 95 0;
#X connect 263 0 96 0;
#X connect 263 0 97 0;
#X connect 263 0 98 0;
#X connect 263 0 99 0;
#X connect 264 0 127 0;
#X connect 264 0 128 0;
#X connect 264 0 129 0;
#X connect 264 0 130 0;
#X connect 264 0 131 0;
#X connect 265 0 154 0;
#X connect 265 0 155 0;
#X connect 265 0 156 0;
#X connect 265 0 157 0;
#X connect 265 0 158 0;
#X connect 266 0 216 0;
#X connect 266 0 217 0;
#X connect 266 0 218 0;
#X connect 266 0 219 0;
#X connect 266 0 220 0;
#X connect 267 0 253 0;
#X connect 267 0 254 0;
#X connect 267 0 255 0;
#X connect 267 0 256 0;
#X connect 267 0 257 0;
