#N canvas 53 98 1178 616 12;
#X declare -stdpath blokas;
#X obj 319 401 metro 500;
#X obj 329 459 bng 50 250 50 0 empty empty empty 17 7 0 10 -4032 -1
-1;
#X floatatom 361 426 5 0 100 0 - latency -;
#X obj 399 405 vline~;
#X msg 399 373 1 20 \, 0 20 20;
#X obj 415 441 osc~ 800;
#X obj 398 470 *~;
#X obj 397 530 dac~;
#X obj 505 374 vsl 15 128 0.005 0.2 1 0 metroVOL metroVOL empty 0 -9
0 10 -262144 -1 -1 0 1;
#X obj 398 498 *~;
#X text 528 481 metronome_volume;
#X obj 19 -23 declare -stdpath blokas;
#X obj 318 426 delay;
#X text 187 523 set local delay;
#X obj 368 226 bng 15 250 50 0 empty empty empty 17 7 0 10 -262144
-1 -1;
#X obj 410 226 bng 15 250 50 0 empty empty empty 17 7 0 10 -262144
-1 -1;
#X obj 321 163 netreceive -u 61012;
#X obj 449 227 bng 15 250 50 0 empty empty empty 17 7 0 10 -262144
-1 -1;
#X obj 17 0 monorack remote-metronome_client;
#X obj 410 286 delay;
#X obj 368 314 spigot;
#X obj 368 251 f 1;
#X obj 368 289 tgl 15 0 empty empty empty 17 7 0 10 -262144 -1 -1 0
1;
#X obj 408 252 f 0;
#X obj 320 197 route start stop tick tempo;
#X obj 31 415 ktrl metroVOL;
#X obj 32 484 ktrl latency;
#X obj 481 282;
#X floatatom 481 307 5 0 0 0 - latency -;
#X connect 0 0 12 0;
#X connect 2 0 12 1;
#X connect 3 0 6 0;
#X connect 4 0 3 0;
#X connect 5 0 6 1;
#X connect 6 0 9 0;
#X connect 8 0 9 1;
#X connect 9 0 7 0;
#X connect 9 0 7 1;
#X connect 12 0 4 0;
#X connect 12 0 1 0;
#X connect 14 0 21 0;
#X connect 15 0 23 0;
#X connect 16 0 24 0;
#X connect 17 0 19 0;
#X connect 19 0 20 0;
#X connect 20 0 1 0;
#X connect 21 0 22 0;
#X connect 21 0 0 0;
#X connect 22 0 20 1;
#X connect 23 0 22 0;
#X connect 23 0 0 0;
#X connect 24 0 14 0;
#X connect 24 1 15 0;
#X connect 24 2 17 0;
#X connect 24 4 0 1;
